<!--?xml version="1.0" standalone="no"?-->
              <svg id="sw-js-blob-svg" viewBox="0 0 100 100" xmlns="http://www.w3.org/2000/svg" version="1.1">
                    <defs> 
                        <linearGradient id="sw-gradient" x1="0" x2="1" y1="1" y2="0">
                            <stop id="stop1" stop-color="rgba(0, 0, 0, 1)" offset="0%"></stop>
                            <stop id="stop2" stop-color="rgba(110.709, 109.793, 108.281, 1)" offset="100%"></stop>
                        </linearGradient>
                    </defs>
                <path fill="url(#sw-gradient)" d="M21.9,-25.9C27,-21.9,28.6,-13.6,30,-5.3C31.4,3,32.6,11.2,29.7,18C26.8,24.7,19.8,29.9,11.9,32.9C4,35.8,-4.8,36.5,-11.9,33.6C-19.1,30.6,-24.6,24,-27.8,16.8C-31.1,9.6,-32.1,1.9,-31.9,-6.8C-31.8,-15.5,-30.5,-25.1,-24.9,-29C-19.4,-32.9,-9.7,-31,-0.6,-30.3C8.4,-29.5,16.9,-29.9,21.9,-25.9Z" width="100%" height="100%" transform="translate(50 50)" stroke-width="0" style="transition: all 0.3s ease 0s;" stroke="url(#sw-gradient)"></path>
              </svg>